<?xml version="1.0" encoding="UTF-8" standalone="no"?><!DOCTYPE svg PUBLIC "-//W3C//DTD SVG 1.1//EN" "http://www.w3.org/Graphics/SVG/1.1/DTD/svg11.dtd"><svg width="100%" height="100%" viewBox="0 0 1000 1000" version="1.1" xmlns="http://www.w3.org/2000/svg" xmlns:xlink="http://www.w3.org/1999/xlink" xml:space="preserve" xmlns:serif="http://www.serif.com/" style="fill-rule:evenodd;clip-rule:evenodd;stroke-linecap:round;stroke-linejoin:round;stroke-miterlimit:1.5;"><rect id="Artboard3" x="0" y="0" width="1000" height="1000" style="fill:none;"/><clipPath id="_clip1"><rect id="Artboard31" serif:id="Artboard3" x="0" y="0" width="1000" height="1000"/></clipPath><g clip-path="url(#_clip1)"><ellipse cx="566.49" cy="588.278" rx="281.187" ry="231.976" style="fill:#f8f8f8;"/><path d="M542.161,7.125c-11.36,-0.387 -295.61,-94.758 -313.81,415.103c-14.223,398.437 -182.673,485.307 -182.673,485.307c0,0 56.669,21.044 100.483,-38.72c43.815,-59.765 -7.19,59.606 -34.173,71.744c-4.85,2.182 75.427,-30.625 140.501,-106.352c6.571,-7.647 -37.384,50.719 -15.14,85.013c2.551,3.934 -1.34,-25.647 76.602,-76.451c42.521,-27.716 129.422,-149.184 32.243,-375.768c-41.428,-96.594 394.839,99.02 394.839,99.02" style="fill:#ffca23;"/><clipPath id="_clip2"><path d="M542.161,7.125c-11.36,-0.387 -295.61,-94.758 -313.81,415.103c-14.223,398.437 -182.673,485.307 -182.673,485.307c0,0 56.669,21.044 100.483,-38.72c43.815,-59.765 -7.19,59.606 -34.173,71.744c-4.85,2.182 75.427,-30.625 140.501,-106.352c6.571,-7.647 -37.384,50.719 -15.14,85.013c2.551,3.934 -1.34,-25.647 76.602,-76.451c42.521,-27.716 129.422,-149.184 32.243,-375.768c-41.428,-96.594 394.839,99.02 394.839,99.02"/></clipPath><g clip-path="url(#_clip2)"><path d="M237.761,920.085c0,0 -8.867,-51.268 109.001,-88.2" style="fill:none;stroke:#000;stroke-opacity:0.0313726;stroke-width:28.4px;"/><path d="M166.898,865.29c0,0 -27.853,49.243 -54.197,75.371" style="fill:none;stroke:#000;stroke-opacity:0.0313726;stroke-width:28.4px;"/></g><path d="M492.22,15.708c13.449,-1.078 422.994,-144.687 392.858,457.883c-11.456,229.069 -22.444,353.266 67.963,444.581c12.989,13.12 -76.466,15.751 -103.679,-40.036c-2.913,-5.971 -3.77,52.682 31.994,79.987c2.797,2.136 -49.514,10.609 -99.854,-79.907c-2.278,-4.096 -28.147,84.049 13.268,121.567c5.033,4.559 -130.888,-61.001 -56.025,-349.774c63.472,-244.831 -482.302,-65.787 -476.675,-69.836" style="fill:#ffca23;"/><clipPath id="_clip3"><path d="M492.22,15.708c13.449,-1.078 422.994,-144.687 392.858,457.883c-11.456,229.069 -22.444,353.266 67.963,444.581c12.989,13.12 -76.466,15.751 -103.679,-40.036c-2.913,-5.971 -3.77,52.682 31.994,79.987c2.797,2.136 -49.514,10.609 -99.854,-79.907c-2.278,-4.096 -28.147,84.049 13.268,121.567c5.033,4.559 -130.888,-61.001 -56.025,-349.774c63.472,-244.831 -482.302,-65.787 -476.675,-69.836"/></clipPath><g clip-path="url(#_clip3)"><path d="M797.591,1015.65c0,0 -46.446,-86.532 -27.416,-128.418" style="fill:none;stroke:#000;stroke-opacity:0.0313726;stroke-width:28.4px;"/><path d="M862.334,882.852c0,0 55.179,54.475 91.988,36.281" style="fill:none;stroke:#000;stroke-opacity:0.0313726;stroke-width:28.4px;"/></g><path d="M790.797,279.956c0.07,-96.144 -77.814,-174.14 -173.959,-174.21c-39.38,-0.028 -81.197,-0.058 -120.578,-0.087c-96.144,-0.069 -174.141,77.815 -174.21,173.959c-0.04,55.569 -0.085,118.005 -0.128,177.128c-0.093,129.44 104.763,234.447 234.202,234.54c0.002,0 0.004,0 0.006,0c129.439,0.093 234.446,-104.763 234.54,-234.202c0.042,-59.123 0.087,-121.559 0.127,-177.128Z" style="fill:#fff;"/></g></svg>